<?xml version="1.0" standalone="no"?><!DOCTYPE svg PUBLIC "-//W3C//DTD SVG 1.1//EN" "http://www.w3.org/Graphics/SVG/1.1/DTD/svg11.dtd"><svg t="1623148109810" class="icon" viewBox="0 0 1024 1024" version="1.1" xmlns="http://www.w3.org/2000/svg" p-id="25245" xmlns:xlink="http://www.w3.org/1999/xlink" width="64" height="64"><defs><style type="text/css"></style></defs><path d="M806.0928 76.9024H221.184c-59.8016 0-108.3392 48.4864-108.3392 108.288v714.0352c0 45.056 45.5168 75.8784 87.3472 59.0848l284.7232-114.0224c15.0016-5.9904 31.744-6.0928 46.7968-0.2048l295.8336 115.3536c41.728 16.2816 86.784-14.4896 86.784-59.3408V185.2416c0.0512-59.8528-48.4352-108.3392-108.2368-108.3392z m-74.3936 364.288l-65.6896 64.0512c-1.3312 1.28-1.9456 3.1232-1.5872 4.9664l15.5136 90.4192c3.6864 21.4528-4.9664 42.752-22.5792 55.552a56.4224 56.4224 0 0 1-59.8016 4.3008l-81.2544-42.7008c-1.6384-0.8704-3.584-0.8704-5.2224 0L429.8752 660.48c-8.3968 4.4032-17.4592 6.6048-26.4704 6.6048-11.7248 0-23.3984-3.6864-33.3312-10.9056-17.6128-12.8-26.2656-34.0992-22.5792-55.552l15.5136-90.4704c0.3072-1.792-0.3072-3.6352-1.5872-4.9664l-65.8432-64a56.56064 56.56064 0 0 1-14.3872-58.2144 56.4736 56.4736 0 0 1 45.8752-38.656l90.8288-13.2096c1.8432-0.256 3.3792-1.4336 4.1984-3.072L462.6944 245.76c9.6256-19.5072 29.1328-31.6416 50.944-31.6416 21.76 0 41.3184 12.1344 50.944 31.6416l40.6016 82.2784c0.8192 1.6384 2.4064 2.816 4.1984 3.072l90.8288 13.2096c21.5552 3.1232 39.1168 17.92 45.8752 38.656 6.7072 20.736 1.1776 43.0592-14.3872 58.2144z" fill="#ffffff" p-id="25246"></path><path d="M692.8384 395.008l-90.8288-13.2096c-18.5344-2.7136-34.5088-14.2848-42.752-31.0784l-40.6016-82.2784c-1.024-2.048-2.7136-3.1232-5.0176-3.1232-2.304 0-3.9936 1.0752-5.0176 3.1232L468.0192 350.72a56.83712 56.83712 0 0 1-42.752 31.0784l-90.8288 13.2096c-2.304 0.3072-3.7888 1.6384-4.5056 3.7888-0.7168 2.2016-0.256 4.096 1.4336 5.7344l65.6896 64.0512a56.832 56.832 0 0 1 16.3328 50.2784l-15.5136 90.4704c-0.4096 2.2528 0.3584 4.096 2.2528 5.4784 1.8432 1.3312 3.84 1.4848 5.888 0.4096l81.2544-42.7008a56.7808 56.7808 0 0 1 26.4192-6.5024c9.0624 0 18.1248 2.1504 26.4192 6.5024l81.2544 42.7008c2.048 1.0752 4.0448 0.9216 5.888-0.4096 1.8432-1.3312 2.6112-3.2256 2.2016-5.4784l-15.5136-90.4192a56.832 56.832 0 0 1 16.3328-50.2784l65.6896-64.0512c1.6384-1.5872 2.1504-3.5328 1.4336-5.7344-0.7168-2.2016-2.2528-3.5328-4.5568-3.84z" fill="#ffffff" p-id="25247"></path></svg>