<?xml version="1.0" standalone="no"?><!DOCTYPE svg PUBLIC "-//W3C//DTD SVG 1.1//EN" "http://www.w3.org/Graphics/SVG/1.1/DTD/svg11.dtd"><svg t="1596356571116" class="icon" viewBox="0 0 1024 1024" version="1.1" xmlns="http://www.w3.org/2000/svg" p-id="3306" xmlns:xlink="http://www.w3.org/1999/xlink" width="64" height="64"><defs><style type="text/css"></style></defs><path d="M466.725 332.79c73.787 0 133.811-60.024 133.811-133.812S540.512 65.166 466.725 65.166 332.913 125.19 332.913 198.978s60.024 133.811 133.812 133.811z m0-223.02c49.188 0 89.208 40.02 89.208 89.208 0 49.2-40.02 89.208-89.208 89.208s-89.208-40.009-89.208-89.208c0-49.188 40.02-89.208 89.208-89.208zM756.65 602.003c73.788 0 133.812-60.023 133.812-133.812S830.438 334.38 756.65 334.38 622.838 394.403 622.838 468.19s60.023 133.812 133.812 133.812z m0-223.02c49.188 0 89.208 40.009 89.208 89.208S805.838 557.4 756.65 557.4c-49.188 0-89.208-40.008-89.208-89.208s40.02-89.208 89.208-89.208zM957.933 782.008c-8.504-31.406-44.984-90.798-122.17-90.798H649.605c-0.302-0.384-0.5-0.792-0.805-1.176-33.061-41.402-83.556-65.142-138.516-65.142h-83.35c-53.422-65.445-142.354-83.182-183.227-87.988v-24.109c0-12.327-9.986-22.302-22.302-22.302H87.592c-12.317 0-22.302 9.975-22.302 22.302V914.23c0 12.327 9.985 22.302 22.302 22.302h133.812c12.316 0 22.301-9.975 22.301-22.302v-30.826c56.81 26.18 170.572 75.43 222.856 75.43h0.305c127.125-0.523 464.05-144.374 478.326-150.495 10.215-4.377 15.637-15.594 12.741-26.331zM199.102 891.927h-89.208v-356.83h89.208v356.83z m267.59 22.302h-0.207c-44.505 0-165.916-53.133-222.78-80.066V581.96c38.082 5.222 114.207 22.406 154.078 78.193a22.3 22.3 0 0 0 18.142 9.343h94.358c41.326 0 79.113 17.64 103.669 48.372 10.302 12.893 17.282 26.353 20.864 40.247H374.74c-12.317 0-22.302 9.976-22.302 22.302 0 12.327 9.985 22.302 22.302 22.302h285.22c12.317 0 22.303-9.975 22.303-22.302 0-15.318-2.73-30.191-7.789-44.604h161.289c39.975 0 61.047 23.196 71.13 40.227-75.867 31.537-339.07 137.776-440.2 138.189z" p-id="3307" fill="#ffffff"></path></svg>