<?xml version="1.0" standalone="no"?><!DOCTYPE svg PUBLIC "-//W3C//DTD SVG 1.1//EN" "http://www.w3.org/Graphics/SVG/1.1/DTD/svg11.dtd"><svg t="1605351879890" class="icon" viewBox="0 0 1024 1024" version="1.1" xmlns="http://www.w3.org/2000/svg" p-id="2914" xmlns:xlink="http://www.w3.org/1999/xlink" width="64" height="64"><defs><style type="text/css"></style></defs><path d="M341.902 851.118c-37.587 0-68.034 30.449-68.034 68.039 0 37.587 30.448 68.034 68.034 68.034 37.59 0 68.034-30.448 68.034-68.034 0-37.591-30.442-68.04-68.034-68.04z m476.249 0c-37.59 0-68.04 30.449-68.04 68.039 0 37.587 30.449 68.034 68.04 68.034 37.584 0 68.034-30.448 68.034-68.034 0-37.591-30.45-68.04-68.034-68.04z m67.488-34.014H333.095c-49.022 0-92.12-38.78-98.109-88.278l-57.693-406.17-32.827-189.819c-2.041-16.561-17.146-30.105-31.907-30.105H69.223c-18.781 0-34.02-15.24-34.02-34.013 0-18.78 15.239-34.02 34.02-34.02h43.336c49.632 0 93.208 38.78 99.23 88.278l32.758 189.1 57.934 407.904c1.904 15.785 16.188 29.088 30.614 29.088H885.64c18.811 0 34.02 15.204 34.02 34.014-0.002 18.812-15.209 34.02-34.021 34.02zM375.616 681.03c-17.653 0-32.587-13.605-33.884-31.534-1.391-18.743 12.69-35.038 31.398-36.397l461.487-34.021c16.937-0.099 31.225-13.402 33.095-28.538l53.577-306.565c1.36-11.43-1.8-23.95-8.636-31.705-4.391-4.966-9.904-7.484-16.33-7.484h-588.98c-18.78 0-34.02-15.24-34.02-34.021 0-18.773 15.24-34.013 34.02-34.013h588.979c25.989 0 49.866 10.78 67.25 30.412 19.869 22.419 28.984 54.018 25.003 86.776l-53.609 306.602c-5.783 47.694-48.85 86.473-97.87 86.473L378.13 680.931c-0.849 0.068-1.7 0.1-2.515 0.1z m0 0" fill="#ffffff" p-id="2915"></path></svg>