<?xml version="1.0" standalone="no"?><!DOCTYPE svg PUBLIC "-//W3C//DTD SVG 1.1//EN" "http://www.w3.org/Graphics/SVG/1.1/DTD/svg11.dtd"><svg t="1623066142129" class="icon" viewBox="0 0 1024 1024" version="1.1" xmlns="http://www.w3.org/2000/svg" p-id="3869" xmlns:xlink="http://www.w3.org/1999/xlink" width="64" height="64"><defs><style type="text/css"></style></defs><path d="M876.156024 777.716987h-0.207799a22.378321 22.378321 0 0 1-22.173719-22.582923l3.196903-349.594131a22.378321 22.378321 0 0 1 22.375124-22.173719h0.207799a22.378321 22.378321 0 0 1 22.173719 22.582923l-3.196903 349.59413a22.378321 22.378321 0 0 1-22.375124 22.17372z" fill="#ffffff" p-id="3870"></path><path d="M935.775068 259.58213c-0.003197-0.089513 0.012788-0.179027 0.009591-0.26854-0.006394-0.153451-0.038363-0.300509-0.047954-0.450763a23.033686 23.033686 0 0 0-0.239768-2.317755c-0.031969-0.201405-0.054347-0.40281-0.09271-0.604215a22.093797 22.093797 0 0 0-0.693728-2.771715c-0.028772-0.09271-0.070332-0.182223-0.099104-0.274933a22.455047 22.455047 0 0 0-0.959071-2.365708c-0.089513-0.188617-0.17583-0.374038-0.271736-0.562655a22.355943 22.355943 0 0 0-5.290875-6.799813c-0.115089-0.099104-0.217389-0.207799-0.332478-0.303706a22.58612 22.58612 0 0 0-2.241029-1.636814c-0.179027-0.115089-0.36125-0.220586-0.543473-0.329281a22.474228 22.474228 0 0 0-2.228242-1.186051c-0.086316-0.038363-0.163042-0.09271-0.249358-0.13427l-0.329281-0.147058-0.057544-0.025575-401.991371-178.419156a22.36873 22.36873 0 0 0-18.158409 0l-132.185546 58.669563c-1.691162 0.326084-3.356748 0.831195-4.958396 1.550498L250.534894 172.581612 99.967157 239.409672a0.45396 0.45396 0 0 0-0.057544 0.025575l-0.329281 0.147058c-0.086316 0.038363-0.163042 0.09271-0.249359 0.13427-0.767257 0.351659-1.508938 0.751272-2.228241 1.186051l-0.543474 0.329281c-0.780044 0.501914-1.534513 1.04219-2.244226 1.636814-0.115089 0.095907-0.217389 0.201405-0.329281 0.300509a22.250445 22.250445 0 0 0-2.193075 2.193075c-1.214823 1.397047-2.257014 2.941151-3.100996 4.609934l-0.271737 0.559458a21.892392 21.892392 0 0 0-0.959071 2.372102l-0.099104 0.265343a22.282414 22.282414 0 0 0-0.693728 2.774912c-0.038363 0.201405-0.060741 0.40281-0.09271 0.604215a22.937779 22.937779 0 0 0-0.239768 2.317755c-0.009591 0.153451-0.04156 0.297312-0.047953 0.450763-0.003197 0.089513 0.012788 0.179027 0.009591 0.26854-0.003197 0.153451-0.022378 0.300509-0.022379 0.45396v127.87612l0.006394 0.115088c0.003197 0.511504 0.038363 1.019812 0.076726 1.52812 0.019181 0.246162 0.022378 0.498717 0.047953 0.741682 0.038363 0.358053 0.105498 0.712909 0.163042 1.067765 0.479535 3.085011 1.57927 5.959027 3.184116 8.494171 0.115089 0.18542 0.217389 0.377235 0.338871 0.556262 0.067135 0.099104 0.143861 0.188617 0.210996 0.284524 1.04219 1.499348 2.282589 2.874016 3.698817 4.101626 0.147058 0.127876 0.284524 0.26854 0.434779 0.390023 0.22698 0.18542 0.476339 0.351659 0.709712 0.530686 0.36125 0.274934 0.716106 0.553064 1.093341 0.805619 0.159845 0.105498 0.332478 0.198208 0.498717 0.300509 0.476339 0.300509 0.955874 0.591427 1.454591 0.85677l0.086316 0.05115 22.189704 11.611152 3.072224 326.106484c0.003197 0.233374 0.031969 0.457157 0.041559 0.687335 0.015985 0.421991 0.035166 0.840785 0.073529 1.259579 0.035166 0.374038 0.09271 0.741681 0.147058 1.112523 0.05115 0.332478 0.095907 0.668153 0.159845 0.997433 0.079923 0.421991 0.182223 0.834392 0.287721 1.246793 0.070332 0.278131 0.137467 0.553064 0.220586 0.827997 0.127876 0.428385 0.271737 0.847179 0.421992 1.262777 0.095907 0.262146 0.188617 0.521095 0.290918 0.780044a28.468421 28.468421 0 0 0 0.923905 1.998065c0.17583 0.338872 0.367644 0.664956 0.559458 0.994237 0.182223 0.3101 0.367644 0.617002 0.565852 0.917511 0.182223 0.274934 0.374038 0.543474 0.565851 0.808816 0.236571 0.326084 0.476339 0.652168 0.732091 0.965465 0.188617 0.230177 0.383628 0.45396 0.581836 0.677743 0.281327 0.31969 0.562655 0.632987 0.863164 0.936693 0.214193 0.217389 0.437976 0.425188 0.661759 0.632987 0.297312 0.278131 0.594624 0.556261 0.907921 0.818407 0.281327 0.233374 0.572246 0.45396 0.863163 0.674547 0.274934 0.207799 0.54667 0.421991 0.834392 0.617002 0.390022 0.26854 0.796029 0.514701 1.205233 0.757666 0.17583 0.105498 0.338872 0.223783 0.517898 0.326084l0.335675 0.188617 0.019181 0.009591 364.760239 204.691305a22.352746 22.352746 0 0 0 21.486385 0.230177l365.115094-194.800087a22.378321 22.378321 0 1 0-21.06759-39.488146l-332.202979 177.239499v-300.809391l130.957935-68.528812c1.019812-0.358053 2.026837-0.76406 3.001892-1.275565l115.299503-60.33515c0.997434-0.521095 1.930929-1.122113 2.822866-1.774281l138.294827-72.368293 0.086316-0.051151c0.498717-0.265343 0.978252-0.556261 1.454591-0.85677 0.163042-0.102301 0.335675-0.195011 0.498717-0.300509 0.377235-0.252555 0.735288-0.530686 1.09334-0.805619 0.236571-0.179027 0.482732-0.345266 0.709713-0.530686 0.150254-0.124679 0.287721-0.262146 0.434779-0.390022a22.10019 22.10019 0 0 0 3.698817-4.101627c0.067135-0.095907 0.147058-0.18542 0.210995-0.284524 0.121482-0.182223 0.223783-0.374038 0.338872-0.556261a22.192901 22.192901 0 0 0 3.184115-8.494172c0.057544-0.354856 0.124679-0.709712 0.163042-1.067765 0.025575-0.246162 0.028772-0.49552 0.047954-0.741682a22.122569 22.122569 0 0 0 0.076726-1.528119l0.006393-0.115089v-127.87612c0.003197-0.153451-0.015985-0.300509-0.019181-0.45396z m-229.51206-67.00389l-84.120109 43.637726-62.601754-30.127614 83.685329-41.489407 63.036534 27.979295z m-195.225276-86.655253l79.024245 35.07642-81.652099 40.479186-80.408504-38.698511 83.036358-36.857095zM259.099397 217.747457l87.313815 44.043733-95.581006 47.387693-90.740894-47.4836 99.008085-43.947826z m85.168693 268.20098l-31.447935-16.457656-38.548256-20.172458-1.173263-101.226737 123.259792-61.108801 64.852374 32.713909-105.897412 54.935581a22.371927 22.371927 0 0 0-12.071506 20.118111l1.026206 91.198051zM131.037857 297.005076l97.294546 50.913878 0.901527 77.834997-75.888084-39.711929-0.044756-0.025575-22.263233-11.649515V297.005076zM488.659411 911.916581L168.179476 732.074803l-2.723761-289.185452 76.204577 39.878168a0.025575 0.025575 0 0 0 0.012787 0.006394l100.405133 52.541101 146.578002 76.70649v299.895077z m0-350.406144l-99.366139-51.997628-0.879148-77.822209 100.245287 52.457981v77.361856z m22.378321-116.165865l-96.99084-50.754032 96.437776-50.028335 98.346327 49.609541-97.793263 51.172826z m123.700965 63.145229l-101.319447 53.020636v-77.361856l101.978009-53.365902-0.658562 77.707122z m115.277125-60.32556l-70.319078 36.796353 0.76406-90.824014a22.387912 22.387912 0 0 0-12.301683-20.169261L311.960189 194.285386l62.352396-27.675589 376.377784 181.142918-0.674547 100.411526z m22.429472-139.611951L672.564453 260.48046l86.07981-44.654342 103.343087 45.869165-89.542056 46.857007z m118.59551 65.814642l-96.108495 50.293678 0.521096-77.636789 95.587399-50.018745v77.361856z" fill="#ffffff" p-id="3871"></path></svg>