<?xml version="1.0" standalone="no"?><!DOCTYPE svg PUBLIC "-//W3C//DTD SVG 1.1//EN" "http://www.w3.org/Graphics/SVG/1.1/DTD/svg11.dtd"><svg t="1593141473863" class="icon" viewBox="0 0 1024 1024" version="1.1" xmlns="http://www.w3.org/2000/svg" p-id="2184" xmlns:xlink="http://www.w3.org/1999/xlink" width="64" height="64"><defs><style type="text/css"></style></defs><path d="M914.285714 877.714286a17.554286 17.554286 0 0 1-7.314285 0l-256-109.714286a18.651429 18.651429 0 0 1-10.971429-16.822857v-146.285714a18.651429 18.651429 0 0 1 10.971429-16.822858l256-109.714285a18.285714 18.285714 0 0 1 25.6 16.822857v365.714286a18.285714 18.285714 0 0 1-8.045715 15.36 20.845714 20.845714 0 0 1-10.24 1.462857z m-237.714285-140.068572l219.428571 93.988572v-310.125715l-219.428571 93.988572z" p-id="2185" fill="#ffffff"></path><path d="M658.285714 914.285714H109.714286a18.285714 18.285714 0 0 1-18.285715-18.285714v-438.857143A18.285714 18.285714 0 0 1 109.714286 438.857143h548.571428a18.285714 18.285714 0 0 1 18.285715 18.285714v438.857143a18.285714 18.285714 0 0 1-18.285715 18.285714zM128 877.714286h512V475.428571h-512zM219.428571 365.714286a128 128 0 1 1 128-128A128 128 0 0 1 219.428571 365.714286z m0-219.428572a91.428571 91.428571 0 1 0 91.428572 91.428572A91.428571 91.428571 0 0 0 219.428571 146.285714zM512 365.714286a91.428571 91.428571 0 1 1 91.428571-91.428572A91.428571 91.428571 0 0 1 512 365.714286z m0-146.285715a54.857143 54.857143 0 1 0 54.857143 54.857143A54.857143 54.857143 0 0 0 512 219.428571z" p-id="2186" fill="#ffffff"></path></svg>