<?xml version="1.0" standalone="no"?><!DOCTYPE svg PUBLIC "-//W3C//DTD SVG 1.1//EN" "http://www.w3.org/Graphics/SVG/1.1/DTD/svg11.dtd"><svg class="icon" width="200px" height="200.00px" viewBox="0 0 1024 1024" version="1.1" xmlns="http://www.w3.org/2000/svg"><path fill="#333333" d="M512.407 462.222c91.26 0 165.926-74.666 165.926-165.926 0-91.259-74.666-165.926-165.926-165.926-91.259 0-165.926 74.667-165.926 165.926 0 91.26 74.667 165.926 165.926 165.926z m-19.91 159.29c-8.297-6.638-13.275-14.934-13.275-26.549 0-18.252 14.934-33.185 33.185-33.185 18.252 0 33.186 14.933 33.186 33.185 0 11.615-4.978 19.911-13.274 26.548l44.8 157.63c3.318 11.615 0 23.23-8.297 31.526l-44.8 44.8c-6.637 6.637-16.592 6.637-23.23 0l-44.8-44.8c-8.296-8.297-11.614-19.911-8.296-31.526l44.8-157.63zM368.051 478.814c-53.096-43.14-87.94-107.852-87.94-182.519C280.111 168.533 384.643 64 512.406 64c127.763 0 232.297 104.533 232.297 232.296 0 73.008-34.845 139.378-87.941 182.519 165.926 48.118 287.052 200.77 287.052 381.63 0 54.755-44.8 99.555-99.556 99.555H180.556C125.8 960 81 915.2 81 860.444c0-180.859 121.126-333.51 287.052-381.63zM844.259 893.63c18.252 0 33.185-14.934 33.185-33.186 0-182.518-149.333-331.851-331.851-331.851h-66.37c-182.52 0-331.853 149.333-331.853 331.851 0 18.252 14.934 33.186 33.186 33.186h663.703z" /></svg>