<?xml version="1.0" standalone="no"?><!DOCTYPE svg PUBLIC "-//W3C//DTD SVG 1.1//EN" "http://www.w3.org/Graphics/SVG/1.1/DTD/svg11.dtd"><svg t="1609161409892" class="icon" viewBox="0 0 1024 1024" version="1.1" xmlns="http://www.w3.org/2000/svg" p-id="2520" xmlns:xlink="http://www.w3.org/1999/xlink" width="128" height="128"><defs><style type="text/css"></style></defs><path d="M484.9 958.3V815.8l-0.9-1 0.9-0.9v-0.6h0.6l7-7.1L816 481.1l37.3 37.3-0.2 0.2L958 622.9l0.6 0.7-25.6 25.5-7.7 8.1-0.2-0.2-301.4 301.3H484.9z m52.7-124.4v71.8h64.2L787 720.4l-67.8-68-181.6 181.5z m218.8-218.8l67.9 68.1 62.6-62.6-69.5-66.6-61 61.1z m-627 342c-35.8 0.3-65-28.5-65.4-64.3V128.2c0.3-35.8 29.6-64.6 65.4-64.3H577l3.7 3.4L853.2 336v96.2h-52.6v-52.6l-227.3-1.3c-19.7-2.9-35.2-18.2-38.5-37.9l2.7-223.9H169.3c-26.9-2.1-50.5 18-52.6 44.9-0.2 2.5-0.2 5.1 0 7.6v684c0 44.1 13.8 52.6 52.6 52.6h157.9v52.6l-197.8-1.1zM590.1 327H748L590.1 169.1V327zM221.9 695.3v-52.6h210.5v52.6H221.9z m0-157.8v-52.7h368.3v52.6l-368.3 0.1z m0-157.8V327h210.5v52.6l-210.5 0.1z" fill="#ffffff" p-id="2521"></path></svg>