<?xml version="1.0" standalone="no"?><!DOCTYPE svg PUBLIC "-//W3C//DTD SVG 1.1//EN" "http://www.w3.org/Graphics/SVG/1.1/DTD/svg11.dtd"><svg t="1585403725206" class="icon" viewBox="0 0 1024 1024" version="1.1" xmlns="http://www.w3.org/2000/svg" p-id="9557" width="128" height="128" xmlns:xlink="http://www.w3.org/1999/xlink"><defs><style type="text/css"></style></defs><path d="M607.573333 88.746667C607.573333 40.96 566.613333 0 512 0c-54.613333 0-95.573333 40.96-95.573333 88.746667v13.653333c-136.533333 40.96-245.76 170.666667-245.76 327.68v122.88s0 177.493333-47.786667 177.493333c-34.133333 0-54.613333 20.48-54.613333 47.786667 0 20.48 20.48 40.96 47.786666 40.96h791.893334c27.306667 0 47.786667-20.48 47.786666-40.96 0-27.306667-20.48-40.96-47.786666-40.96-47.786667 0-47.786667-177.493333-47.786667-177.493333V430.08c0-157.013333-102.4-286.72-245.76-327.68-6.826667-6.826667-6.826667-6.826667-6.826667-13.653333zM682.666667 887.466667c0 75.093333-75.093333 136.533333-170.666667 136.533333S341.333333 962.56 341.333333 887.466667h341.333334z" fill="#ffffff" p-id="9558"></path></svg>