<?xml version="1.0" standalone="no"?><!DOCTYPE svg PUBLIC "-//W3C//DTD SVG 1.1//EN" "http://www.w3.org/Graphics/SVG/1.1/DTD/svg11.dtd"><svg t="1623115820666" class="icon" viewBox="0 0 1024 1024" version="1.1" xmlns="http://www.w3.org/2000/svg" p-id="7649" xmlns:xlink="http://www.w3.org/1999/xlink" width="64" height="64"><defs><style type="text/css"></style></defs><path d="M845.7216 232.9088H175.5648c-21.8112 0-41.216 13.824-48.384 34.4064l-66.56 191.744c0 62.4128 50.5856 112.9984 112.9984 112.9984s112.9984-50.5856 112.9984-112.9984c0 62.4128 50.5856 112.9984 112.9984 112.9984s112.9984-50.5856 112.9984-112.9984c0 62.4128 50.5856 112.9984 112.9984 112.9984s112.9984-50.5856 112.9984-112.9984c0 62.4128 50.5856 112.9984 112.9984 112.9984s112.9984-50.5856 112.9984-112.9984l-70.8608-192.6144a51.1488 51.1488 0 0 0-48.0256-33.536zM827.3408 176.896H194.9696c-16.9472 0-30.72-13.7728-30.72-30.72s13.7728-30.72 30.72-30.72h632.3712c16.9472 0 30.72 13.7728 30.72 30.72s-13.7728 30.72-30.72 30.72zM739.072 600.8832c-84.3264 56.8832-181.7088 40.4992-227.072 0-94.72 66.6624-202.3424 18.432-230.7584-5.12-62.1568 43.8272-138.24 34.5088-138.24 34.5088v230.7072c0 33.9456 27.4944 61.44 61.44 61.44h612.4544c33.9456 0 61.44-27.4944 61.44-61.44v-111.1552-119.3984c-75.52 11.8784-102.9632-11.8784-139.264-29.5424z" fill="#ffffff" p-id="7650"></path></svg>