<?xml version="1.0" standalone="no"?><!DOCTYPE svg PUBLIC "-//W3C//DTD SVG 1.1//EN" "http://www.w3.org/Graphics/SVG/1.1/DTD/svg11.dtd"><svg t="1588132497088" class="icon" viewBox="0 0 1024 1024" version="1.1" xmlns="http://www.w3.org/2000/svg" p-id="8872" xmlns:xlink="http://www.w3.org/1999/xlink" width="64" height="64"><defs><style type="text/css"></style></defs><path d="M714.2 816.4v56c0 30.9-25.1 56-56 56H434.1c-30.9 0-56-25.1-56-56v-56H154c-30.9 0-56-25.1-56-56V154.2c0-30.9 25.1-56 56-56h784.3c30.9 0 56 25.1 56 56v606.2c0 30.9-25.1 56-56 56H714.2zM162.8 168.5v578.2h768.1V168.5H162.8z" p-id="8873" fill="#ffffff"></path><path d="M665.8 248.4l79.4 79.4c11 11 11 28.7 0 39.7l-79.4 79.4c-11 11-28.7 11-39.7 0l-79.4-79.4c-11-11-11-28.7 0-39.7l79.4-79.4c11-11 28.8-11 39.7 0zM365.3 487.9h112.3c15.5 0 28.1 12.6 28.1 28.1v112.2c0 15.5-12.6 28.1-28.1 28.1H365.3c-15.5 0-28.1-12.6-28.1-28.1V516c0-15.5 12.6-28.1 28.1-28.1zM589.6 487.9h112.3c15.5 0 28.1 12.6 28.1 28.1v112.2c0 15.5-12.6 28.1-28.1 28.1H589.6c-15.5 0-28.1-12.6-28.1-28.1V516c0-15.5 12.6-28.1 28.1-28.1zM407.8 334.2c28.8 8.9 55.2-11.8 56.2-38.9 0.9-23.4-18.4-43.8-41.8-44.2-23.9-0.4-43.4 18.8-43.4 42.6 0 18.3 11.5 35.1 29 40.5zM421.4 348.5c-28.5 0-85.3 16.3-85.3 48.7v11.9c0 6.9 5.6 12.5 12.5 12.5h145.6c6.9 0 12.5-5.6 12.5-12.5v-11.9c0-32.4-56.8-48.7-85.3-48.7z" p-id="8874" fill="#ffffff"></path></svg>