<?xml version="1.0" standalone="no"?><!DOCTYPE svg PUBLIC "-//W3C//DTD SVG 1.1//EN" "http://www.w3.org/Graphics/SVG/1.1/DTD/svg11.dtd"><svg t="1588132821703" class="icon" viewBox="0 0 1177 1024" version="1.1" xmlns="http://www.w3.org/2000/svg" p-id="13118" xmlns:xlink="http://www.w3.org/1999/xlink" width="73.5625" height="64"><defs><style type="text/css"></style></defs><path d="M537.140578 857.204387h76.570289v128.510468h-76.570289z" fill="#ffffff" p-id="13119"></path><path d="M876.985045 1024H273.866401a38.285145 38.285145 0 1 1 0-76.570289h603.118644a38.285145 38.285145 0 0 1 0 76.570289z" fill="#ffffff" p-id="13120"></path><path d="M854.013958 345.714855m-107.964108 0a107.964108 107.964108 0 1 0 215.928216 0 107.964108 107.964108 0 1 0-215.928216 0Z" fill="#ffffff" p-id="13121"></path><path d="M669.862413 534.971087m-81.03689 0a81.036889 81.036889 0 1 0 162.073779 0 81.036889 81.036889 0 1 0-162.073779 0Z" fill="#ffffff" p-id="13122"></path><path d="M484.434696 345.714855m-81.036889 0a81.036889 81.036889 0 1 0 162.073778 0 81.036889 81.036889 0 1 0-162.073778 0Z" fill="#ffffff" p-id="13123"></path><path d="M296.965105 534.971087m-81.03689 0a81.036889 81.036889 0 1 0 162.073779 0 81.036889 81.036889 0 1 0-162.073779 0Z" fill="#ffffff" p-id="13124"></path><path d="M296.965105 573.256231a38.285145 38.285145 0 0 1-27.182453-65.467597l187.724826-187.597208a38.285145 38.285145 0 0 1 27.437687-11.230309 38.285145 38.285145 0 0 1 27.054835 11.230309l156.458624 156.841475L826.831505 319.042871A38.285145 38.285145 0 0 1 880.558325 372.769691L695.51346 558.325025a39.561316 39.561316 0 0 1-54.109671 0L484.945165 401.355932 324.01994 561.515454a38.285145 38.285145 0 0 1-27.054835 11.740777z" fill="#ffffff" p-id="13125"></path><path d="M1139.238285 416.031904a38.285145 38.285145 0 0 1-38.285144-38.285144v-91.629113a38.285145 38.285145 0 0 1 76.570289 0v91.629113a38.285145 38.285145 0 0 1-38.285145 38.285144z" fill="#ffffff" p-id="13126"></path><path d="M1139.238285 455.976072a38.285145 38.285145 0 0 1-38.285144-38.285145v-96.861416a38.285145 38.285145 0 0 1 76.570289 0v96.861416a38.285145 38.285145 0 0 1-38.285145 38.285145z" fill="#ffffff" p-id="13127"></path><path d="M1106.057827 907.740778a38.285145 38.285145 0 0 1-5.104686-76.570289V534.205384a38.285145 38.285145 0 0 1 76.570289 0v302.06979a71.465603 71.465603 0 0 1-71.465603 71.465604z" fill="#ffffff" p-id="13128"></path><path d="M1106.057827 907.740778a38.285145 38.285145 0 0 1-5.104686-76.570289V607.074776a38.285145 38.285145 0 0 1 76.570289 0v229.710867a71.465603 71.465603 0 0 1-71.465603 70.955135z" fill="#ffffff" p-id="13129"></path><path d="M1106.057827 907.740778a38.285145 38.285145 0 0 1-5.104686-76.570289V670.88335a38.285145 38.285145 0 0 1 76.570289 0v165.902293a71.465603 71.465603 0 0 1-71.465603 70.955135z" fill="#ffffff" p-id="13130"></path><path d="M1106.057827 907.740778H71.465603a71.465603 71.465603 0 0 1-71.465603-71.465604V71.337986A71.465603 71.465603 0 0 1 71.465603 0h1034.592224a71.465603 71.465603 0 0 1 71.465603 71.337986V191.425723a38.285145 38.285145 0 1 1-76.570289 0V76.570289H76.570289v754.6002h1024.382852v-79.760718a38.285145 38.285145 0 0 1 76.570289 0v84.865403a71.465603 71.465603 0 0 1-71.465603 71.465604z" fill="#ffffff" p-id="13131"></path></svg>