<?xml version="1.0" standalone="no"?><!DOCTYPE svg PUBLIC "-//W3C//DTD SVG 1.1//EN" "http://www.w3.org/Graphics/SVG/1.1/DTD/svg11.dtd"><svg t="1586950720305" class="icon" viewBox="0 0 1024 1024" version="1.1" xmlns="http://www.w3.org/2000/svg" p-id="8072" xmlns:xlink="http://www.w3.org/1999/xlink" width="200" height="200"><defs><style type="text/css"></style></defs><path d="M919.145395 534.008246c-3.295046-1.876744-7.381108-1.854231-10.677177 0.104377l-5.598508 3.214205c-22.538319 12.45159-49.782823 18.878976-80.905658 19.117406-59.259662 0-113.26874-30.363542-144.495952-81.267908l-1.574868-2.7486c-1.681292-3.78214-5.599532-5.794983-9.724479-5.845125-4.208858-0.187265-8.107655 2.746554-9.891278 6.479575l-1.326205 2.15406c-30.93557 50.510394-84.159772 80.904635-142.195559 81.310887-59.072397-0.354064-112.835881-30.823006-143.833873-81.539085l-1.429559-2.49789c-1.823532-3.752464-6.137791-6.011924-9.765411-5.857405-4.146437 0.084934-7.857968 2.707668-9.515724 6.510274l-1.824555 2.944052c-31.227212 50.417273-84.928275 80.635505-143.813407 80.853469-25.358551 0-48.247864-4.221138-68.070328-12.545734-0.581238-0.237407-1.450025-0.433882-2.363837-0.567935l-9.434883-5.070482c-2.426259-1.27504-4.808516-2.631944-7.131421-4.021593-3.275603-1.970888-7.381108-2.032286-10.679223-0.1361-3.338025 1.886977-5.389754 5.412266-5.389754 9.237385L99.503736 821.073264c0 62.098313 50.528813 112.627127 112.627127 112.627127l599.673805 0c62.119803 0 112.648616-50.529837 112.648616-112.627127l0.062422-277.827633C924.514683 539.430746 922.463977 535.89727 919.145395 534.008246z" p-id="8073" fill="#ffffff"></path><path d="M136.618029 512.963954l2.426259 1.264806 0.080841 0c17.645892 8.894577 38.981826 13.393032 63.426565 13.393032l0.041956 0c48.580438-0.174985 93.013417-25.211195 119.532397-68.278059 1.803066-4.115738 4.229325-8.946766 8.832156-14.046924 5.142114-6.209422 15.259542-10.057053 26.435069-10.057053 11.903098 0 22.62223 4.354168 28.90533 11.902074 3.358491 3.826142 5.741771 8.740058 7.650237 12.595876 25.668613 41.955554 69.915349 67.178005 118.496811 67.469648 47.977711-0.341784 91.89392-25.50386 117.999484-68.246337 1.802042-3.733021 4.041036-8.376785 8.416693-13.362332 5.681396-7.060813 16.149818-11.44568 27.348881-11.44568 11.506055 0 20.75572 3.867074 27.556613 11.549034 4.331655 4.820796 6.696516 9.982352 8.708336 14.171768 25.814945 42.11212 70.371744 67.251683 119.239731 67.251683 26.230408-0.196475 48.768727-5.411243 66.994834-15.47853 45.033659-24.829502 72.962755-72.341608 72.900334-124.000152 0-15.445784-2.591011-30.892591-7.652284-45.749974l-87.1028-220.258473c-9.724479-29.058826-38.937824-30.759561-49.161676-31.339776L208.917682 90.298586c-16.420995 0-37.756929 5.161556-45.925982 29.151947L70.579987 340.196099c-0.165776 0.788969-0.353041 1.523703-0.540306 2.115174-5.080715 15.041578-7.650237 30.550807-7.650237 46.112224C62.429353 440.714444 90.878289 488.435305 136.618029 512.963954z" p-id="8074" fill="#ffffff"></path></svg>